# xmcd
#
# Track frame offsets:
#	150
#	13160
#	23794
#	37381
#	51928
#	67625
#	82772
#	93962
#	106712
#	120046
#	135146
#	145568
#	160352
#	177747
#	196796
#	215610
#
# Disc length: 3022
#
# Revision: 3
# Processed by: cddbd v1.5.1PL0 Copyright (c) Steve Scherf et al.
# Submitted via: CDex 1.40Beta8
# Normalized: r2:DSETVAR1,TDELIM( - )
#
DISCID=c50bcc10
DTITLE=Various Artist - Trucker and CountryHits  CD1
DYEAR=1900
DGENRE=Country
TTITLE0=Nashville Music Company - Wir steh'n im Stau
TTITLE1=Jonny Hill - König der Landstraße
TTITLE2=Freddy Quinn - Green green Grass Of Home
TTITLE3=Abi Hoffmann - Für einen Augenblick
TTITLE4=Jonny Hill - Lucille
TTITLE5=Anne Karin - Du fehlst mir
TTITLE6=Freddy Quinn - Kann Liebe alles verzeih'n
TTITLE7=Jonny Hill - Fünfhundert Meilen von zuhaus
TTITLE8=Nashville Music Company - Vergib mir, das ich dich liebe
TTITLE9=Jonny Hill - Wie heißt deine Mama
TTITLE10=Peter Held - Gib Gas (Jack Knife)
TTITLE11=Jonny Hill - Nur noch einmal nach Haus
TTITLE12=Freddy Quinn - Gib mir ein Zuhaus
TTITLE13=Sven Jenssen - Trucker und Sailor
TTITLE14=Jonny Hill - Sylvia's Mutter
TTITLE15=Freddy Quinn - Nur ein Mann in besten Jahren
EXTD=ID3G: 2
EXTT0=
EXTT1=
EXTT2=
EXTT3=
EXTT4=
EXTT5=
EXTT6=
EXTT7=
EXTT8=
EXTT9=
EXTT10=
EXTT11=
EXTT12=
EXTT13=
EXTT14=
EXTT15=
PLAYORDER=
